<svg width="64" height="19" viewBox="0 0 64 19" fill="none" xmlns="http://www.w3.org/2000/svg">
<path d="M55.8717 18.432C51.1677 18.432 47.9277 14.904 47.9277 9.144C47.9277 3.36 51.1677 0 55.8717 0C60.5757 0 63.8157 3.384 63.8157 9.144C63.8157 14.904 60.5757 18.432 55.8717 18.432ZM55.8717 15.36C58.5117 15.36 60.1917 12.936 60.1917 9.144C60.1917 5.328 58.5117 3.048 55.8717 3.048C53.2317 3.048 51.5517 5.328 51.5517 9.144C51.5517 12.936 53.2317 15.36 55.8717 15.36Z" fill="#4C566A"/>
<path d="M39.2446 18.432C34.4206 18.432 30.7246 15.216 30.7246 9.288C30.7246 3.432 34.5166 0 39.2446 0C41.8126 0 43.5886 1.104 44.7406 2.28L42.8686 4.536C41.9806 3.696 40.9726 3.048 39.3646 3.048C36.4126 3.048 34.3486 5.352 34.3486 9.168C34.3486 13.032 36.1246 15.36 39.6286 15.36C40.4686 15.36 41.3326 15.12 41.8366 14.688V11.184H38.6926V8.28H45.0046V16.296C43.8046 17.472 41.7166 18.432 39.2446 18.432Z" fill="#4C566A"/>
<path d="M20.1999 18.432C15.4959 18.432 12.2559 14.904 12.2559 9.144C12.2559 3.36 15.4959 0 20.1999 0C24.9039 0 28.1439 3.384 28.1439 9.144C28.1439 14.904 24.9039 18.432 20.1999 18.432ZM20.1999 15.36C22.8399 15.36 24.5199 12.936 24.5199 9.144C24.5199 5.328 22.8399 3.048 20.1999 3.048C17.5599 3.048 15.8799 5.328 15.8799 9.144C15.8799 12.936 17.5599 15.36 20.1999 15.36Z" fill="#4C566A"/>
<path d="M0.183594 18.096V0.312012H3.73559V15.12H10.9596V18.096H0.183594Z" fill="#4C566A"/>
</svg>
